<mxfile host="app.diagrams.net" modified="2022-03-24T23:52:55.038Z" agent="5.0 (Macintosh)" etag="HbkiRVk9ViU5JqLQG0Va" version="17.2.2" type="github">
  <diagram id="-hN-MSK7Q1_RvColJM6n" name="Page-1">
    <mxGraphModel dx="1298" dy="1873" grid="1" gridSize="10" guides="1" tooltips="1" connect="1" arrows="1" fold="1" page="1" pageScale="1" pageWidth="850" pageHeight="1100" math="0" shadow="0">
      <root>
        <mxCell id="0" />
        <mxCell id="1" parent="0" />
        <mxCell id="Oci5rgU2LHDsX-qW9czk-28" value="" style="rounded=0;whiteSpace=wrap;html=1;" vertex="1" parent="1">
          <mxGeometry x="70" y="-1060" width="710" height="580" as="geometry" />
        </mxCell>
        <mxCell id="Oci5rgU2LHDsX-qW9czk-17" value="Privileged Method Calls" style="edgeStyle=orthogonalEdgeStyle;rounded=0;orthogonalLoop=1;jettySize=auto;html=1;exitX=0.5;exitY=1;exitDx=0;exitDy=0;" edge="1" parent="1" source="Oci5rgU2LHDsX-qW9czk-1" target="Oci5rgU2LHDsX-qW9czk-2">
          <mxGeometry relative="1" as="geometry" />
        </mxCell>
        <mxCell id="Oci5rgU2LHDsX-qW9czk-11" style="edgeStyle=orthogonalEdgeStyle;rounded=0;orthogonalLoop=1;jettySize=auto;html=1;entryX=0;entryY=0.5;entryDx=0;entryDy=0;" edge="1" parent="1" source="Oci5rgU2LHDsX-qW9czk-10" target="Oci5rgU2LHDsX-qW9czk-2">
          <mxGeometry relative="1" as="geometry" />
        </mxCell>
        <mxCell id="Oci5rgU2LHDsX-qW9czk-14" value="" style="group" vertex="1" connectable="0" parent="1">
          <mxGeometry x="480" y="-1020" width="190" height="110" as="geometry" />
        </mxCell>
        <mxCell id="Oci5rgU2LHDsX-qW9czk-12" value="" style="rounded=0;whiteSpace=wrap;html=1;" vertex="1" parent="Oci5rgU2LHDsX-qW9czk-14">
          <mxGeometry width="190" height="110" as="geometry" />
        </mxCell>
        <mxCell id="Oci5rgU2LHDsX-qW9czk-6" value="" style="shape=actor;whiteSpace=wrap;html=1;" vertex="1" parent="Oci5rgU2LHDsX-qW9czk-14">
          <mxGeometry x="30" y="10" width="40" height="60" as="geometry" />
        </mxCell>
        <mxCell id="Oci5rgU2LHDsX-qW9czk-7" value="" style="shape=actor;whiteSpace=wrap;html=1;" vertex="1" parent="Oci5rgU2LHDsX-qW9czk-14">
          <mxGeometry x="80" y="10" width="40" height="60" as="geometry" />
        </mxCell>
        <mxCell id="Oci5rgU2LHDsX-qW9czk-8" value="" style="shape=actor;whiteSpace=wrap;html=1;" vertex="1" parent="Oci5rgU2LHDsX-qW9czk-14">
          <mxGeometry x="130" y="10" width="40" height="60" as="geometry" />
        </mxCell>
        <mxCell id="Oci5rgU2LHDsX-qW9czk-13" value="Admin users" style="text;html=1;strokeColor=none;fillColor=none;align=center;verticalAlign=middle;whiteSpace=wrap;rounded=0;" vertex="1" parent="Oci5rgU2LHDsX-qW9czk-14">
          <mxGeometry x="110" y="80" width="80" height="30" as="geometry" />
        </mxCell>
        <mxCell id="Oci5rgU2LHDsX-qW9czk-15" style="edgeStyle=orthogonalEdgeStyle;rounded=0;orthogonalLoop=1;jettySize=auto;html=1;exitX=0.5;exitY=1;exitDx=0;exitDy=0;entryX=0.5;entryY=0;entryDx=0;entryDy=0;" edge="1" parent="1" source="Oci5rgU2LHDsX-qW9czk-12" target="Oci5rgU2LHDsX-qW9czk-1">
          <mxGeometry relative="1" as="geometry" />
        </mxCell>
        <mxCell id="Oci5rgU2LHDsX-qW9czk-19" value="" style="group" vertex="1" connectable="0" parent="1">
          <mxGeometry x="535" y="-850" width="170" height="80" as="geometry" />
        </mxCell>
        <mxCell id="Oci5rgU2LHDsX-qW9czk-1" value="" style="aspect=fixed;perimeter=ellipsePerimeter;html=1;align=center;shadow=0;dashed=0;fontColor=#4277BB;labelBackgroundColor=#ffffff;fontSize=12;spacingTop=3;image;image=img/lib/ibm/blockchain/smart_contract.svg;" vertex="1" parent="Oci5rgU2LHDsX-qW9czk-19">
          <mxGeometry width="80" height="80" as="geometry" />
        </mxCell>
        <mxCell id="Oci5rgU2LHDsX-qW9czk-16" value="K of N Multisig Contract" style="text;html=1;strokeColor=none;fillColor=none;align=center;verticalAlign=middle;whiteSpace=wrap;rounded=0;" vertex="1" parent="Oci5rgU2LHDsX-qW9czk-19">
          <mxGeometry x="85" y="25" width="85" height="30" as="geometry" />
        </mxCell>
        <mxCell id="Oci5rgU2LHDsX-qW9czk-20" value="" style="group" vertex="1" connectable="0" parent="1">
          <mxGeometry x="535" y="-700" width="155" height="80" as="geometry" />
        </mxCell>
        <mxCell id="Oci5rgU2LHDsX-qW9czk-2" value="" style="aspect=fixed;perimeter=ellipsePerimeter;html=1;align=center;shadow=0;dashed=0;fontColor=#4277BB;labelBackgroundColor=#ffffff;fontSize=12;spacingTop=3;image;image=img/lib/ibm/blockchain/smart_contract.svg;" vertex="1" parent="Oci5rgU2LHDsX-qW9czk-20">
          <mxGeometry width="80" height="80" as="geometry" />
        </mxCell>
        <mxCell id="Oci5rgU2LHDsX-qW9czk-18" value="Smart Stock Contract" style="text;html=1;strokeColor=none;fillColor=none;align=center;verticalAlign=middle;whiteSpace=wrap;rounded=0;" vertex="1" parent="Oci5rgU2LHDsX-qW9czk-20">
          <mxGeometry x="85" y="25" width="70" height="30" as="geometry" />
        </mxCell>
        <mxCell id="Oci5rgU2LHDsX-qW9czk-24" value="" style="group" vertex="1" connectable="0" parent="1">
          <mxGeometry x="150" y="-780" width="80" height="270" as="geometry" />
        </mxCell>
        <mxCell id="Oci5rgU2LHDsX-qW9czk-22" value="" style="rounded=0;whiteSpace=wrap;html=1;" vertex="1" parent="Oci5rgU2LHDsX-qW9czk-24">
          <mxGeometry width="80" height="240" as="geometry" />
        </mxCell>
        <mxCell id="Oci5rgU2LHDsX-qW9czk-3" value="" style="shape=actor;whiteSpace=wrap;html=1;" vertex="1" parent="Oci5rgU2LHDsX-qW9czk-24">
          <mxGeometry x="20" y="20" width="40" height="60" as="geometry" />
        </mxCell>
        <mxCell id="Oci5rgU2LHDsX-qW9czk-4" value="" style="shape=actor;whiteSpace=wrap;html=1;" vertex="1" parent="Oci5rgU2LHDsX-qW9czk-24">
          <mxGeometry x="20" y="90" width="40" height="60" as="geometry" />
        </mxCell>
        <mxCell id="Oci5rgU2LHDsX-qW9czk-5" value="" style="shape=actor;whiteSpace=wrap;html=1;" vertex="1" parent="Oci5rgU2LHDsX-qW9czk-24">
          <mxGeometry x="20" y="160" width="40" height="60" as="geometry" />
        </mxCell>
        <mxCell id="Oci5rgU2LHDsX-qW9czk-23" value="investors" style="text;html=1;strokeColor=none;fillColor=none;align=center;verticalAlign=middle;whiteSpace=wrap;rounded=0;" vertex="1" parent="Oci5rgU2LHDsX-qW9czk-24">
          <mxGeometry x="10" y="240" width="60" height="30" as="geometry" />
        </mxCell>
        <mxCell id="Oci5rgU2LHDsX-qW9czk-25" style="edgeStyle=orthogonalEdgeStyle;rounded=0;orthogonalLoop=1;jettySize=auto;html=1;exitX=1;exitY=0.5;exitDx=0;exitDy=0;" edge="1" parent="1" source="Oci5rgU2LHDsX-qW9czk-22" target="Oci5rgU2LHDsX-qW9czk-10">
          <mxGeometry relative="1" as="geometry" />
        </mxCell>
        <mxCell id="Oci5rgU2LHDsX-qW9czk-27" value="" style="group" vertex="1" connectable="0" parent="1">
          <mxGeometry x="315" y="-730" width="150" height="170" as="geometry" />
        </mxCell>
        <mxCell id="Oci5rgU2LHDsX-qW9czk-10" value="" style="shadow=0;dashed=0;html=1;strokeColor=none;fillColor=#4495D1;labelPosition=center;verticalLabelPosition=bottom;verticalAlign=top;align=center;outlineConnect=0;shape=mxgraph.veeam.2d.web_ui;" vertex="1" parent="Oci5rgU2LHDsX-qW9czk-27">
          <mxGeometry width="150" height="140" as="geometry" />
        </mxCell>
        <mxCell id="Oci5rgU2LHDsX-qW9czk-26" value="React web dApp" style="text;html=1;strokeColor=none;fillColor=none;align=center;verticalAlign=middle;whiteSpace=wrap;rounded=0;" vertex="1" parent="Oci5rgU2LHDsX-qW9czk-27">
          <mxGeometry x="22.5" y="140" width="105" height="30" as="geometry" />
        </mxCell>
      </root>
    </mxGraphModel>
  </diagram>
</mxfile>
